<svg width="80" height="155" viewBox="0 0 80 155" fill="none" xmlns="http://www.w3.org/2000/svg">
<path d="M2 97V91.4L11.8 89.1L35.7 26.5H44.4L66.8 89.1L76.4 91.4V97H42.5V91.4L49.6 89.7L45.3 77.7H24.3L19.8 89.4L28.2 91.4V97H2ZM27 70.8H42.8L35 49.5L27 70.8Z" fill="#FFFAFA"/>
<path d="M0.65 106.8L0.65 104H17.95L17.95 106.8L13.85 107.65L21.4 128.35L28.25 107.9L24.3 106.8L24.3 104H36.9V106.8L32.3 107.9L21.4 139.35H16.55L5.1 107.9L0.65 106.8ZM34.7324 126.2C34.7324 122.267 35.8324 119.133 38.0324 116.8C40.2658 114.433 43.2824 113.25 47.0824 113.25C50.9491 113.25 53.8658 114.567 55.8324 117.2C57.8324 119.833 58.8324 123.083 58.8324 126.95H42.4324C42.6658 129.417 43.5491 131.55 45.0824 133.35C46.6158 135.117 48.5824 136 50.9824 136C52.7824 136 54.7158 135.617 56.7824 134.85L57.8324 137.7C54.7324 139.067 51.6991 139.75 48.7324 139.75C44.4324 139.75 41.0158 138.5 38.4824 136C35.9824 133.467 34.7324 130.2 34.7324 126.2ZM42.4324 123.85L50.8824 123.3C50.8824 122.5 50.8324 121.767 50.7324 121.1C50.6324 120.4 50.3491 119.567 49.8824 118.6C49.0491 117.2 48.0658 116.5 46.9324 116.5C45.5991 116.5 44.4991 117.183 43.6324 118.55C43.1324 119.383 42.7991 120.3 42.6324 121.3C42.4658 122.3 42.3991 123.15 42.4324 123.85ZM61.6285 117.5V115.5L70.1285 109.45H71.9785V114.25L78.1785 114V117.5H71.9785V131.8C71.9785 133.433 72.1618 134.583 72.5285 135.25C72.8952 135.917 73.6452 136.25 74.7785 136.25C75.6118 136.25 76.7285 135.95 78.1285 135.35L78.9285 138.15C76.9285 139.217 74.8118 139.75 72.5785 139.75C67.0452 139.75 64.2785 137.183 64.2785 132.05V117.5H61.6285Z" fill="#3E61E0"/>
</svg>
