<svg width="209" height="30" viewBox="0 0 209 30" fill="none" xmlns="http://www.w3.org/2000/svg">
<path d="M14.96 1.72L24.12 22.32C24.68 23.4933 25.12 24.3867 25.44 25C25.7867 25.6133 26.1067 26.0267 26.4 26.24C26.72 26.4533 27.08 26.6 27.48 26.68C27.5867 27.0267 27.6533 27.4 27.68 27.8C27.7333 28.2 27.76 28.64 27.76 29.12C27.3333 29.0667 26.7733 29.0267 26.08 29C25.3867 29 24.68 29 23.96 29C23.2667 29 22.7067 29 22.28 29C21.96 29 21.5333 29 21 29C20.4667 29 19.9067 29 19.32 29C18.7333 29.0267 18.1733 29.04 17.64 29.04C17.1333 29.0667 16.7333 29.0933 16.44 29.12C16.44 28.5867 16.4667 28.1333 16.52 27.76C16.5733 27.36 16.6533 27 16.76 26.68C17.7467 26.4933 18.3333 26.2 18.52 25.8C18.7067 25.3733 18.56 24.64 18.08 23.6L13.92 13.92C13.36 12.6933 12.9067 11.56 12.56 10.52C12.2133 9.48 11.8933 8.4 11.6 7.28H12.48C12.16 8.42667 11.8267 9.54667 11.48 10.64C11.1333 11.7067 10.7333 12.8 10.28 13.92L6.76 23C6.36 24.0667 6.26667 24.92 6.48 25.56C6.69333 26.2 7.28 26.5733 8.24 26.68C8.34667 27 8.41333 27.3733 8.44 27.8C8.49333 28.2 8.52 28.64 8.52 29.12C8.22667 29.0933 7.82667 29.0667 7.32 29.04C6.84 29.04 6.32 29.0267 5.76 29C5.22667 29 4.73333 29 4.28 29C3.61333 29 2.94667 29 2.28 29C1.61333 29.0267 1.08 29.0667 0.68 29.12C0.68 28.6667 0.706667 28.24 0.76 27.84C0.813333 27.44 0.906667 27.0533 1.04 26.68C1.49333 26.6 1.88 26.44 2.2 26.2C2.52 25.9333 2.82667 25.5067 3.12 24.92C3.44 24.3333 3.81333 23.5333 4.24 22.52L12.6 1.92C13.0267 1.81333 13.4 1.76 13.72 1.76C14.0667 1.73333 14.48 1.72 14.96 1.72ZM17.08 19.12L17.68 21.32C15.8933 21.32 14.0133 21.3467 12.04 21.4C10.0933 21.4533 8.21333 21.5467 6.4 21.68L7.04 19.12H17.08ZM32.5622 20.64V17.16C32.5622 16.3867 32.4955 15.7867 32.3622 15.36C32.2555 14.9067 31.9889 14.5733 31.5622 14.36C31.1622 14.12 30.5222 13.9733 29.6422 13.92C29.6422 13.52 29.6689 13.1333 29.7222 12.76C29.8022 12.36 29.9355 11.9867 30.1222 11.64C31.5355 11.64 32.8955 11.5067 34.2022 11.24C35.5355 10.9467 36.5089 10.64 37.1222 10.32C37.4955 10.4533 37.7755 10.6933 37.9622 11.04C38.1755 11.36 38.2822 11.84 38.2822 12.48L32.5622 20.64ZM50.9622 23.2C50.9622 24.5333 51.1089 25.4533 51.4022 25.96C51.7222 26.44 52.2422 26.68 52.9622 26.68C53.0955 27 53.1755 27.36 53.2022 27.76C53.2555 28.1333 53.2822 28.5867 53.2822 29.12C52.6955 29.0933 51.9355 29.0667 51.0022 29.04C50.0955 29.0133 49.2022 29 48.3222 29C47.7355 29 47.0689 29 46.3222 29C45.6022 29.0267 44.9089 29.04 44.2422 29.04C43.5755 29.0667 43.0422 29.0933 42.6422 29.12C42.6422 28.64 42.6555 28.2 42.6822 27.8C42.7089 27.4 42.7889 27.0267 42.9222 26.68C43.6689 26.68 44.2422 26.4133 44.6422 25.88C45.0422 25.3467 45.2422 24.3733 45.2422 22.96V18.6C45.2422 16.92 44.9755 15.76 44.4422 15.12C43.9089 14.4533 43.1489 14.12 42.1622 14.12C41.5222 14.12 40.8955 14.3733 40.2822 14.88C39.6955 15.36 39.2155 16.08 38.8422 17.04C38.4689 17.9733 38.2822 19.1467 38.2822 20.56V23.2C38.2822 24.56 38.4555 25.48 38.8022 25.96C39.1755 26.44 39.7622 26.68 40.5622 26.68C40.7222 27.0533 40.8155 27.4267 40.8422 27.8C40.8689 28.1733 40.8822 28.6133 40.8822 29.12C40.5089 29.0933 40.0022 29.0667 39.3622 29.04C38.7222 29.04 38.0555 29.0267 37.3622 29C36.6955 29 36.0555 29 35.4422 29C34.8289 29 34.1489 29 33.4022 29C32.6555 29.0267 31.9355 29.04 31.2422 29.04C30.5489 29.0667 30.0022 29.0933 29.6022 29.12C29.6022 28.6133 29.6289 28.1467 29.6822 27.72C29.7355 27.2933 29.8155 26.9467 29.9222 26.68C30.9622 26.68 31.6555 26.44 32.0022 25.96C32.3755 25.4533 32.5622 24.5333 32.5622 23.2V17.16L38.2822 12.48C38.2822 12.8 38.2422 13.1733 38.1622 13.6C38.1089 14 38.0155 14.4267 37.8822 14.88C38.0422 14.56 38.2022 14.24 38.3622 13.92C38.5222 13.6 38.7355 13.2933 39.0022 13C39.5355 12.3867 40.2822 11.8267 41.2422 11.32C42.2022 10.7867 43.3089 10.52 44.5622 10.52C45.6822 10.52 46.7222 10.7333 47.6822 11.16C48.6689 11.5867 49.4555 12.28 50.0422 13.24C50.6555 14.2 50.9622 15.4667 50.9622 17.04V23.2ZM66.3044 10.32C66.9177 10.32 67.4777 10.3733 67.9844 10.48C68.5177 10.56 69.0777 10.68 69.6644 10.84V14.56C69.1844 13.9733 68.6777 13.52 68.1444 13.2C67.6377 12.8533 66.9977 12.68 66.2244 12.68C65.7177 12.68 65.171 12.7867 64.5844 13C64.0244 13.1867 63.491 13.5467 62.9844 14.08C62.4777 14.5867 62.0644 15.3333 61.7444 16.32C61.4244 17.28 61.2644 18.52 61.2644 20.04C61.2644 21.2933 61.4244 22.3733 61.7444 23.28C62.091 24.1867 62.5444 24.8933 63.1044 25.4C63.6644 25.88 64.3044 26.12 65.0244 26.12C65.7177 26.12 66.3844 25.9067 67.0244 25.48C67.6644 25.0267 68.1844 24.3067 68.5844 23.32C69.011 22.3067 69.2244 20.9733 69.2244 19.32L70.7844 23.4C70.3577 24.44 69.9577 25.2533 69.5844 25.84C69.211 26.4 68.851 26.8267 68.5044 27.12C68.2377 27.44 67.8377 27.7733 67.3044 28.12C66.7977 28.4667 66.1977 28.76 65.5044 29C64.811 29.24 64.051 29.36 63.2244 29.36C61.7044 29.36 60.3444 29.0667 59.1444 28.48C57.971 27.8933 57.051 26.9733 56.3844 25.72C55.7177 24.4667 55.3844 22.8533 55.3844 20.88C55.3844 18.8533 55.8377 17.04 56.7444 15.44C57.651 13.84 58.9177 12.5867 60.5444 11.68C62.1977 10.7733 64.1177 10.32 66.3044 10.32ZM74.9044 22.32C74.9044 23.1467 74.9577 23.8 75.0644 24.28C75.171 24.7333 75.3977 25.0533 75.7444 25.24C76.091 25.4267 76.5977 25.52 77.2644 25.52C77.3177 25.9467 77.3177 26.3867 77.2644 26.84C77.211 27.2667 77.091 27.6667 76.9044 28.04C75.9444 28.0667 74.931 28.2 73.8644 28.44C72.8244 28.6533 71.8644 28.96 70.9844 29.36C70.5577 29.1733 70.2377 28.92 70.0244 28.6C69.811 28.28 69.7044 27.7733 69.7044 27.08C69.7044 26.5467 69.7577 26.0133 69.8644 25.48C69.9977 24.9467 70.171 24.32 70.3844 23.6L74.9044 22.32ZM74.9044 6.16V23.8H69.2244V6.16H74.9044ZM73.7444 0.32C74.091 0.453333 74.371 0.693332 74.5844 1.04C74.7977 1.36 74.9044 1.82667 74.9044 2.44V7.52H69.2244V6.76C69.2244 6.12 69.1444 5.6 68.9844 5.2C68.851 4.8 68.571 4.50667 68.1444 4.32C67.7177 4.10667 67.0777 3.97333 66.2244 3.92C66.2244 3.52 66.251 3.13333 66.3044 2.76C66.3844 2.36 66.5044 1.98667 66.6644 1.64C67.571 1.64 68.491 1.57333 69.4244 1.44C70.3577 1.30667 71.211 1.14667 71.9844 0.959999C72.7844 0.746665 73.371 0.533332 73.7444 0.32ZM88.3994 22.08C88.3994 23.2267 88.5194 24.12 88.7594 24.76C89.026 25.4 89.4394 25.8667 89.9994 26.16C90.586 26.4267 91.3727 26.6 92.3594 26.68C92.4927 27 92.5727 27.3733 92.5994 27.8C92.626 28.2267 92.6394 28.6667 92.6394 29.12C92.186 29.0933 91.6127 29.0667 90.9194 29.04C90.2527 29.04 89.5327 29.0267 88.7594 29C87.986 29 87.226 29 86.4794 29C85.2794 29 84.0394 29 82.7594 29C81.4794 29.0267 80.466 29.0667 79.7194 29.12C79.7194 28.56 79.7327 28.0933 79.7594 27.72C79.8127 27.32 79.8794 26.9733 79.9594 26.68C80.6794 26.6267 81.2394 26.4933 81.6394 26.28C82.0394 26.0667 82.306 25.68 82.4394 25.12C82.5994 24.5333 82.6794 23.72 82.6794 22.68V19.92H88.3994V22.08ZM88.3994 17.2V20.64H82.6794V16.28L88.3994 12.48C88.3994 13.1467 88.3194 13.8267 88.1594 14.52C88.026 15.1867 87.8527 15.9867 87.6394 16.92L88.3994 17.2ZM87.5194 17.08C87.7327 16.4667 87.946 15.8533 88.1594 15.24C88.3727 14.6267 88.5727 14.16 88.7594 13.84C89.346 12.9067 90.066 12.1333 90.9194 11.52C91.7727 10.9067 92.7327 10.6 93.7994 10.6C94.8394 10.6 95.786 10.92 96.6394 11.56C96.5594 12.0933 96.4794 12.7067 96.3994 13.4C96.346 14.0667 96.306 14.7467 96.2794 15.44C96.2794 16.1333 96.2927 16.7733 96.3194 17.36C95.9194 17.52 95.386 17.64 94.7194 17.72C94.0794 17.8 93.506 17.84 92.9994 17.84C92.9727 16.7733 92.8127 16.04 92.5194 15.64C92.226 15.2133 91.8127 15 91.2794 15C90.8794 15 90.4527 15.24 89.9994 15.72C89.546 16.1733 89.1594 16.7867 88.8394 17.56C88.546 18.3067 88.3994 19.12 88.3994 20L87.5194 17.08ZM82.6794 20.64V17.16C82.6794 16.3867 82.6127 15.7867 82.4794 15.36C82.3727 14.9067 82.106 14.5733 81.6794 14.36C81.2794 14.12 80.6394 13.9733 79.7594 13.92C79.7594 13.52 79.786 13.1333 79.8394 12.76C79.9194 12.36 80.0527 11.9867 80.2394 11.64C81.6527 11.64 83.0127 11.5067 84.3194 11.24C85.6527 10.9467 86.626 10.64 87.2394 10.32C87.6127 10.4533 87.8927 10.6933 88.0794 11.04C88.2927 11.36 88.3994 11.84 88.3994 12.48L82.6794 20.64ZM108.384 29.36C106.117 29.36 104.277 28.9467 102.864 28.12C101.45 27.2933 100.41 26.1733 99.7438 24.76C99.0771 23.32 98.7438 21.72 98.7438 19.96C98.7438 18.0667 99.1171 16.4 99.8638 14.96C100.61 13.52 101.677 12.3867 103.064 11.56C104.477 10.7333 106.117 10.32 107.984 10.32C109.904 10.32 111.464 10.6933 112.664 11.44C113.89 12.16 114.797 13.1733 115.384 14.48C115.97 15.76 116.304 17.2133 116.384 18.84C116.197 19.6133 115.864 20.24 115.384 20.72C114.717 20.72 113.904 20.7333 112.944 20.76C111.984 20.76 110.944 20.7733 109.824 20.8C108.73 20.8 107.61 20.8267 106.464 20.88C105.344 20.9067 104.277 20.96 103.264 21.04V18.4H110.944C110.944 16.6133 110.677 15.24 110.144 14.28C109.637 13.2933 108.89 12.8 107.904 12.8C107.264 12.8 106.69 13.0133 106.184 13.44C105.677 13.84 105.277 14.4933 104.984 15.4C104.69 16.28 104.544 17.44 104.544 18.88C104.544 20.24 104.717 21.4933 105.064 22.64C105.41 23.7867 105.984 24.6933 106.784 25.36C107.61 26.0267 108.73 26.36 110.144 26.36C111.05 26.36 111.957 26.1867 112.864 25.84C113.77 25.4933 114.544 25.04 115.184 24.48C115.424 24.6133 115.65 24.88 115.864 25.28C116.077 25.68 116.184 26.08 116.184 26.48C115.197 27.4667 114.064 28.2 112.784 28.68C111.504 29.1333 110.037 29.36 108.384 29.36ZM122.782 0.079998C123.396 0.266665 123.849 0.626666 124.142 1.16C124.436 1.66666 124.582 2.46666 124.582 3.56C124.582 5.05333 124.262 6.48 123.622 7.84C123.009 9.17333 122.129 10.4 120.982 11.52C120.529 11.52 120.102 11.4667 119.702 11.36C119.302 11.2533 118.942 11.0933 118.622 10.88C119.396 9.97333 119.902 9.24 120.142 8.68C120.409 8.09333 120.542 7.45333 120.542 6.76C120.542 6.2 120.342 5.77333 119.942 5.48C119.542 5.16 118.942 4.94667 118.142 4.84C118.142 4.25333 118.169 3.68 118.222 3.12C118.302 2.56 118.436 1.96 118.622 1.32C119.476 1.21333 120.249 1.06667 120.942 0.88C121.662 0.666666 122.276 0.399999 122.782 0.079998ZM141.302 11.6C141.276 12.2667 141.262 12.9733 141.262 13.72C141.289 14.44 141.356 15.1467 141.462 15.84C141.089 16.0533 140.636 16.2267 140.102 16.36C139.569 16.4933 139.009 16.56 138.422 16.56C138.369 15.8667 138.182 15.24 137.862 14.68C137.569 14.0933 137.142 13.6267 136.582 13.28C136.049 12.9067 135.382 12.72 134.582 12.72C133.969 12.72 133.476 12.88 133.102 13.2C132.729 13.52 132.542 13.9333 132.542 14.44C132.542 14.8133 132.636 15.16 132.822 15.48C133.009 15.7733 133.409 16.1067 134.022 16.48C134.662 16.8267 135.622 17.2667 136.902 17.8C138.422 18.4133 139.609 19 140.462 19.56C141.316 20.0933 141.916 20.6933 142.262 21.36C142.636 22 142.822 22.7733 142.822 23.68C142.822 24.88 142.476 25.9067 141.782 26.76C141.116 27.6133 140.156 28.2667 138.902 28.72C137.649 29.1467 136.169 29.36 134.462 29.36C132.809 29.36 131.449 29.24 130.382 29C129.316 28.76 128.276 28.4133 127.262 27.96C127.316 27.4533 127.356 26.9067 127.382 26.32C127.409 25.7067 127.409 25.1067 127.382 24.52C127.382 23.9333 127.356 23.4267 127.302 23C127.676 22.76 128.156 22.5867 128.742 22.48C129.329 22.3733 129.889 22.32 130.422 22.32C130.582 23.8133 131.009 24.9333 131.702 25.68C132.422 26.4267 133.329 26.8 134.422 26.8C135.222 26.8 135.862 26.6267 136.342 26.28C136.822 25.9067 137.062 25.4133 137.062 24.8C137.062 24.3733 136.956 24.0133 136.742 23.72C136.556 23.4 136.182 23.08 135.622 22.76C135.089 22.44 134.289 22.0667 133.222 21.64C131.969 21.16 130.916 20.6667 130.062 20.16C129.209 19.6533 128.556 19.04 128.102 18.32C127.649 17.5733 127.422 16.6267 127.422 15.48C127.422 14.6 127.622 13.84 128.022 13.2C128.422 12.56 128.969 12.0267 129.662 11.6C130.382 11.1733 131.182 10.8533 132.062 10.64C132.969 10.4267 133.916 10.32 134.902 10.32C136.316 10.32 137.516 10.4267 138.502 10.64C139.489 10.8533 140.422 11.1733 141.302 11.6ZM161.281 29.36C160.987 28.6133 160.614 27.7467 160.161 26.76C159.734 25.7733 159.267 24.7333 158.761 23.64C158.281 22.52 157.787 21.44 157.281 20.4C156.801 19.3333 156.347 18.3733 155.921 17.52C155.521 16.64 155.187 15.9467 154.921 15.44C154.627 14.8 154.361 14.32 154.121 14C153.881 13.68 153.627 13.4533 153.361 13.32C153.121 13.16 152.827 13.0533 152.481 13C152.374 12.6533 152.281 12.28 152.201 11.88C152.147 11.4533 152.121 11.0133 152.121 10.56C152.707 10.5867 153.467 10.6133 154.401 10.64C155.361 10.6667 156.361 10.68 157.401 10.68C158.094 10.68 158.814 10.68 159.561 10.68C160.307 10.6533 161.001 10.64 161.641 10.64C162.307 10.6133 162.854 10.5867 163.281 10.56C163.281 10.96 163.241 11.3867 163.161 11.84C163.081 12.2933 162.987 12.6667 162.881 12.96C161.787 13.0667 161.147 13.2933 160.961 13.64C160.774 13.96 160.921 14.6267 161.401 15.64C161.667 16.1733 161.947 16.8 162.241 17.52C162.534 18.2133 162.841 18.9733 163.161 19.8C163.507 20.6267 163.841 21.4667 164.161 22.32C164.481 23.1733 164.774 24.0133 165.041 24.84H164.001C164.587 23.1867 165.147 21.72 165.681 20.44C166.214 19.16 166.747 17.8933 167.281 16.64C167.814 15.3067 167.961 14.3867 167.721 13.88C167.481 13.3733 166.907 13.08 166.001 13C165.867 12.68 165.761 12.2933 165.681 11.84C165.601 11.3867 165.561 10.96 165.561 10.56C166.094 10.5867 166.694 10.6133 167.361 10.64C168.027 10.6667 168.721 10.68 169.441 10.68C170.161 10.68 170.867 10.6667 171.561 10.64C172.254 10.6133 172.867 10.5867 173.401 10.56C173.401 10.9867 173.361 11.4267 173.281 11.88C173.227 12.3333 173.121 12.7067 172.961 13C172.534 13.1067 172.161 13.28 171.841 13.52C171.521 13.7333 171.214 14.0667 170.921 14.52C170.654 14.9733 170.361 15.6133 170.041 16.44L164.521 28.88C164.147 29.0667 163.654 29.2 163.041 29.28C162.427 29.3867 161.841 29.4133 161.281 29.36ZM184.36 29.36C182.094 29.36 180.254 28.9467 178.84 28.12C177.427 27.2933 176.387 26.1733 175.72 24.76C175.054 23.32 174.72 21.72 174.72 19.96C174.72 18.0667 175.094 16.4 175.84 14.96C176.587 13.52 177.654 12.3867 179.04 11.56C180.454 10.7333 182.094 10.32 183.96 10.32C185.88 10.32 187.44 10.6933 188.64 11.44C189.867 12.16 190.774 13.1733 191.36 14.48C191.947 15.76 192.28 17.2133 192.36 18.84C192.174 19.6133 191.84 20.24 191.36 20.72C190.694 20.72 189.88 20.7333 188.92 20.76C187.96 20.76 186.92 20.7733 185.8 20.8C184.707 20.8 183.587 20.8267 182.44 20.88C181.32 20.9067 180.254 20.96 179.24 21.04V18.4H186.92C186.92 16.6133 186.654 15.24 186.12 14.28C185.614 13.2933 184.867 12.8 183.88 12.8C183.24 12.8 182.667 13.0133 182.16 13.44C181.654 13.84 181.254 14.4933 180.96 15.4C180.667 16.28 180.52 17.44 180.52 18.88C180.52 20.24 180.694 21.4933 181.04 22.64C181.387 23.7867 181.96 24.6933 182.76 25.36C183.587 26.0267 184.707 26.36 186.12 26.36C187.027 26.36 187.934 26.1867 188.84 25.84C189.747 25.4933 190.52 25.04 191.16 24.48C191.4 24.6133 191.627 24.88 191.84 25.28C192.054 25.68 192.16 26.08 192.16 26.48C191.174 27.4667 190.04 28.2 188.76 28.68C187.48 29.1333 186.014 29.36 184.36 29.36ZM202.75 29.36C200.91 29.36 199.523 28.88 198.59 27.92C197.657 26.96 197.19 25.3467 197.19 23.08V14.08C196.763 13.92 196.323 13.8 195.87 13.72C195.417 13.64 194.87 13.5867 194.23 13.56C194.23 13.08 194.257 12.6533 194.31 12.28C194.39 11.9067 194.523 11.5067 194.71 11.08H197.19V6.16C198.07 6.02667 198.937 5.78667 199.79 5.44C200.643 5.06666 201.35 4.65333 201.91 4.2C202.283 4.36 202.537 4.58667 202.67 4.88C202.803 5.17333 202.87 5.76 202.87 6.64V11.08H207.79C207.79 11.56 207.763 12.0133 207.71 12.44C207.657 12.84 207.563 13.2267 207.43 13.6C206.523 13.6 205.697 13.6533 204.95 13.76C204.203 13.8667 203.51 14.0133 202.87 14.2V22.4C202.87 23.4667 202.937 24.3067 203.07 24.92C203.23 25.5067 203.47 25.92 203.79 26.16C204.11 26.4 204.497 26.52 204.95 26.52C205.403 26.52 205.83 26.4667 206.23 26.36C206.657 26.2267 207.057 26.0533 207.43 25.84C207.803 26.32 208.003 26.9733 208.03 27.8C207.497 28.2533 206.737 28.6267 205.75 28.92C204.79 29.2133 203.79 29.36 202.75 29.36Z" fill="white"/>
</svg>
